<?xml version="1.0" encoding="utf-8"?>
<!-- Generator: Adobe Illustrator 26.3.1, SVG Export Plug-In . SVG Version: 6.00 Build 0)  -->
<svg version="1.1" id="Layer_1" xmlns="http://www.w3.org/2000/svg" xmlns:xlink="http://www.w3.org/1999/xlink" x="0px" y="0px"
	 viewBox="0 0 752 752" style="enable-background:new 0 0 752 752;" xml:space="preserve">
<style type="text/css">
	.st0{fill:#6513F0;}
</style>
<g>
	<path class="st0" d="M566,186.5c-1,0-102.3-0.6-186.4-44.4c-2.3-1.2-5-1.2-7.3,0c-84,43.8-185.4,44.4-186.4,44.4
		c-4.4,0-7.9,3.5-7.9,7.9v178.6c0,85.8,46.4,164.5,121.2,205.4c25.1,13.7,50.1,24.5,74.4,32.2c0.8,0.2,1.6,0.4,2.4,0.4
		c0.8,0,1.6-0.1,2.4-0.4c24.2-7.7,49.3-18.5,74.4-32.2c74.7-40.8,121.2-119.5,121.2-205.3l0-178.5C573.9,190,570.4,186.5,566,186.5
		L566,186.5z M558.1,372.9c0,80-43.3,153.4-112.9,191.5c-23.4,12.8-46.6,22.9-69.2,30.2c-22.5-7.3-45.8-17.4-69.2-30.2
		C237.2,526.3,193.9,453,193.9,372.9l0-170.8c25.7-0.9,108.4-6.9,182.1-44.1c73.7,37.3,156.4,43.2,182.1,44.1L558.1,372.9z"/>
	<path class="st0" d="M255.3,376c0,66.6,54.1,120.7,120.7,120.7c26.4,0,50.7-8.6,70.6-23c0.8-0.4,1.6-0.8,2.2-1.5
		c0.1-0.1,0.1-0.3,0.3-0.4c10.5-8,19.7-17.6,27.1-28.6c0,0,0,0,0,0c0.9-0.9,1.4-1.9,1.8-3c11.8-18.6,18.7-40.6,18.7-64.3
		c0-66.6-54.2-120.7-120.7-120.7C309.4,255.3,255.3,309.4,255.3,376L255.3,376z M313.7,292L460,438.3c-4.8,6.5-10.4,12.3-16.6,17.5
		L296.3,308.6C301.5,302.4,307.3,296.8,313.7,292L313.7,292z M271.1,376c0-20,5.9-38.6,15.7-54.5l143.8,143.8
		c-15.9,9.8-34.5,15.7-54.5,15.7C318.1,480.9,271.1,433.9,271.1,376L271.1,376z M480.9,376c0,17.6-4.8,33.9-12.4,48.5l-141-141
		c14.6-7.7,30.9-12.4,48.5-12.4C433.9,271.1,480.9,318.1,480.9,376L480.9,376z"/>
</g>
</svg>
