<svg id="Group_5012" data-name="Group 5012" xmlns="http://www.w3.org/2000/svg" xmlns:xlink="http://www.w3.org/1999/xlink" width="45" height="45" viewBox="0 0 45 45">
  <defs>
    <clipPath id="clip-path">
      <rect id="Rectangle_4293" data-name="Rectangle 4293" width="45" height="45" fill="#2ca1fa"/>
    </clipPath>
  </defs>
  <g id="Group_4902" data-name="Group 4902" clip-path="url(#clip-path)">
    <path id="Path_4291" data-name="Path 4291" d="M1.73,45H12.114a1.731,1.731,0,0,0,1.731-1.731V32.885a1.731,1.731,0,0,0-1.731-1.731H8.653V24.231H20.769v6.923H17.307a1.73,1.73,0,0,0-1.731,1.731V43.27A1.731,1.731,0,0,0,17.307,45H27.692a1.731,1.731,0,0,0,1.731-1.731V32.885a1.731,1.731,0,0,0-1.731-1.731H24.23V24.231H36.346v6.923H32.884a1.73,1.73,0,0,0-1.73,1.731V43.27A1.731,1.731,0,0,0,32.884,45H43.269A1.731,1.731,0,0,0,45,43.27V32.885a1.731,1.731,0,0,0-1.731-1.731H39.808V22.5a1.731,1.731,0,0,0-1.731-1.731H24.231V13.846h3.461a1.731,1.731,0,0,0,1.731-1.731V1.731A1.731,1.731,0,0,0,27.692,0H17.308a1.731,1.731,0,0,0-1.731,1.731V12.116h0a1.731,1.731,0,0,0,1.731,1.731h3.461V20.77H6.923A1.731,1.731,0,0,0,5.192,22.5v8.654H1.731A1.731,1.731,0,0,0,0,32.885V43.27A1.731,1.731,0,0,0,1.731,45Zm24.231-3.461H19.037V34.616h6.923Zm15.578,0H34.615V34.616h6.923ZM19.038,3.461h6.923v6.923H19.038ZM3.461,34.616h6.923v6.923H3.461Z" transform="translate(-0.217)" fill="#2ca1fa"/>
  </g>
</svg>
