<svg xmlns="http://www.w3.org/2000/svg" xmlns:xlink="http://www.w3.org/1999/xlink" width="42.706" height="41.046" viewBox="0 0 42.706 41.046">
  <defs>
    <clipPath id="clip-path">
      <rect id="Rectangle_4292" data-name="Rectangle 4292" width="42.706" height="41.046" fill="#2ca1fa"/>
    </clipPath>
  </defs>
  <g id="Group_4901" data-name="Group 4901" transform="translate(-0.001 0)">
    <rect id="Rectangle_4291" data-name="Rectangle 4291" width="2.831" height="11.751" transform="translate(19.938 5.95)" fill="#2ca1fa"/>
    <path id="Path_4281" data-name="Path 4281" d="M57.617,165.74l-.879,2.693,1.349.437,8.483,2.754,1.344.442.879-2.693-1.349-.442-8.483-2.754Z" transform="translate(-51.309 -149.886)" fill="#2ca1fa"/>
    <path id="Path_4282" data-name="Path 4282" d="M118.1,262.05l-.83,1.145-5.248,7.216-.83,1.144,2.289,1.665.835-1.145,5.242-7.216.83-1.15Z" transform="translate(-100.554 -236.984)" fill="#2ca1fa"/>
    <path id="Path_4283" data-name="Path 4283" d="M241.414,262.05l-2.289,1.659.83,1.15,5.242,7.216.835,1.145,2.289-1.665-.83-1.144-5.248-7.216Z" transform="translate(-216.25 -236.984)" fill="#2ca1fa"/>
    <path id="Path_4284" data-name="Path 4284" d="M274.868,165.74l-1.344.437-8.483,2.754-1.349.442.879,2.693,1.344-.442,8.483-2.754,1.349-.437Z" transform="translate(-238.468 -149.886)" fill="#2ca1fa"/>
    <g id="Group_4900" data-name="Group 4900" transform="translate(0.001 0)">
      <g id="Group_4899" data-name="Group 4899" clip-path="url(#clip-path)">
        <path id="Path_4285" data-name="Path 4285" d="M153.59,155.45a7.363,7.363,0,1,0,7.366,7.36,7.384,7.384,0,0,0-7.366-7.36m0,2.831a4.532,4.532,0,1,1-4.535,4.529,4.51,4.51,0,0,1,4.535-4.529" transform="translate(-132.237 -140.581)" fill="#2ca1fa"/>
        <path id="Path_4286" data-name="Path 4286" d="M181.717,0a4.414,4.414,0,0,0-4.391,4.391,4.391,4.391,0,0,0,8.781,0A4.414,4.414,0,0,0,181.717,0m0,2.831a1.557,1.557,0,1,1-1.559,1.559,1.54,1.54,0,0,1,1.559-1.559" transform="translate(-160.364)" fill="#2ca1fa"/>
        <path id="Path_4287" data-name="Path 4287" d="M5.738,129.119a3.485,3.485,0,1,0,.006,0Zm-.874,2.693H4.87a1.559,1.559,0,1,1-.968,2.964,1.558,1.558,0,0,1,.963-2.964Z" transform="translate(0 -116.577)" fill="#2ca1fa"/>
        <path id="Path_4288" data-name="Path 4288" d="M71.475,337.546a4.382,4.382,0,1,0,3.268.774,4.378,4.378,0,0,0-3.268-.774Zm1.6,3.064a1.558,1.558,0,1,1-2.179.348,1.543,1.543,0,0,1,2.179-.348Z" transform="translate(-61.298 -305.208)" fill="#2ca1fa"/>
        <path id="Path_4289" data-name="Path 4289" d="M292.142,337.546a4.382,4.382,0,1,0,2.865,1.748,4.375,4.375,0,0,0-2.865-1.748Zm-1.6,3.064a1.558,1.558,0,1,1-.343,2.178,1.542,1.542,0,0,1,.343-2.178Z" transform="translate(-259.613 -305.208)" fill="#2ca1fa"/>
        <path id="Path_4290" data-name="Path 4290" d="M357.761,129.118a6.826,6.826,0,1,0,.006,0Zm.874,2.693h.006a1.238,1.238,0,1,1-.006,0Z" transform="translate(-320.798 -116.577)" fill="#2ca1fa"/>
      </g>
    </g>
  </g>
</svg>
