<svg xmlns="http://www.w3.org/2000/svg" width="25.237" height="25.237" viewBox="0 0 25.237 25.237">
  <g id="Group_5537" data-name="Group 5537" transform="translate(-168.81 -168.8)">
    <path id="Path_5260" data-name="Path 5260" d="M170.613,192.235h10.815a10.816,10.816,0,1,0-10.815-10.816ZM181.428,168.8a12.618,12.618,0,1,1,0,25.237H168.81V181.418A12.618,12.618,0,0,1,181.428,168.8Z" fill="#808184"/>
    <path id="Union_16" data-name="Union 16" d="M-1587.484,615.935c-.39,0-.706-.436-.706-.974s.316-.973.706-.973h12c.39,0,.706.436.706.973s-.316.974-.706.974Zm0-4.87c-.39,0-.706-.436-.706-.973s.316-.974.706-.974h12c.39,0,.706.436.706.974s-.316.973-.706.973Zm0-4.869c-.39,0-.706-.435-.706-.974s.316-.974.706-.974h5.649c.39,0,.706.436.706.974s-.316.974-.706.974Z" transform="translate(1761.799 -427.698)" fill="#808184" stroke="rgba(0,0,0,0)" stroke-width="1"/>
  </g>
</svg>
