<svg id="Group_5011" data-name="Group 5011" xmlns="http://www.w3.org/2000/svg" xmlns:xlink="http://www.w3.org/1999/xlink" width="45" height="36.639" viewBox="0 0 45 36.639">
  <defs>
    <clipPath id="clip-path">
      <rect id="Rectangle_4294" data-name="Rectangle 4294" width="45" height="36.639" fill="#2ca1fa"/>
    </clipPath>
  </defs>
  <g id="Group_4904" data-name="Group 4904" clip-path="url(#clip-path)">
    <path id="Path_4292" data-name="Path 4292" d="M284.165,205.94h10.793c-.047-5.207-.521-10.461-5.539-10.793a15.143,15.143,0,0,1-6.154,3.124,8.775,8.775,0,0,0-1.8-3.172c1.988.094,3.929-1.041,6.817-3.314,10.84,0,10.036,9.42,10.036,17.467H284.165V205.94Z" transform="translate(-253.333 -172.616)" fill="#2ca1fa"/>
    <path id="Path_4293" data-name="Path 4293" d="M209.19,0a9.988,9.988,0,1,1,0,19.976,9.531,9.531,0,0,1-5.16-1.467,10.787,10.787,0,0,0,1.42-3.077,6.537,6.537,0,0,0,3.787,1.183,6.674,6.674,0,1,0-5.728-10.13,5.373,5.373,0,0,0-.71-.757,10.933,10.933,0,0,0-1.846-1.467A10.084,10.084,0,0,1,209.19,0Z" transform="translate(-180.866)" fill="#2ca1fa"/>
    <path id="Path_4294" data-name="Path 4294" d="M3,223.328H26.715c-.047-4.639-.473-9.326-4.971-9.61-5.113,3.929-8.71,3.929-13.823,0-4.5.284-4.876,4.971-4.923,9.61ZM.016,226.31c0-7.148-.8-15.574,8.9-15.574,5.018,3.976,6.817,3.976,11.834,0,9.7,0,8.947,8.379,8.947,15.574H.016Z" transform="translate(0 -189.672)" fill="#2ca1fa"/>
    <path id="Path_4295" data-name="Path 4295" d="M68.257,39.78a8.9,8.9,0,1,1-8.9,8.9A8.889,8.889,0,0,1,68.257,39.78Zm0,2.982a5.917,5.917,0,1,0,5.917,5.917,5.92,5.92,0,0,0-5.917-5.917" transform="translate(-53.425 -35.804)" fill="#2ca1fa"/>
  </g>
</svg>
