<svg xmlns="http://www.w3.org/2000/svg" xmlns:xlink="http://www.w3.org/1999/xlink" width="55.055" height="61.349" viewBox="0 0 55.055 61.349">
  <defs>
    <clipPath id="clip-path">
      <rect id="Rectangle_4360" data-name="Rectangle 4360" width="55.055" height="61.349" transform="translate(0 0)" fill="#bb2929"/>
    </clipPath>
  </defs>
  <g id="Group_4944" data-name="Group 4944" transform="translate(0 -0.015)">
    <g id="Group_4943" data-name="Group 4943" transform="translate(0 0.015)" clip-path="url(#clip-path)">
      <path id="Path_4267" data-name="Path 4267" d="M53.191,61.351H41.941a2.537,2.537,0,0,1-2.207-1.29l-3.558-6.321-4.3,6.48a2.523,2.523,0,0,1-2.109,1.131H19.325a2.531,2.531,0,0,1-2.091-3.959l9.03-13.237L15.509,28.013a4.106,4.106,0,0,0-1.283-.194V41.565A2.537,2.537,0,0,1,11.693,44.1H3.338A2.54,2.54,0,0,1,.8,41.562V2.533A2.537,2.537,0,0,1,3.338,0H21.13a30.715,30.715,0,0,1,9.3,1.087,11.191,11.191,0,0,1,5.834,4.425,13.241,13.241,0,0,1,2.18,7.638,13.359,13.359,0,0,1-1.664,6.768,13.066,13.066,0,0,1-4.538,4.63,12.336,12.336,0,0,1-2.174,1.039c1.315,1.875,2.227,3.338,3.117,4.764.943,1.514,1.85,2.966,3.2,4.86l3.6-5.318A2.523,2.523,0,0,1,42.1,28.759H52.477a2.533,2.533,0,0,1,2.072,3.988l-.014.019L46.267,44.242l9.014,13.146a2.53,2.53,0,0,1-2.09,3.961ZM42.7,57.516H50.72l-9.141-13.33,8.355-11.593H42.793l-6.244,9.221L34.932,39.69a84.35,84.35,0,0,1-5-7.31c-1.171-1.877-2.381-3.819-4.542-6.716l-1.754-2.351,2.857-.663a12.94,12.94,0,0,0,3.741-1.369A9.161,9.161,0,0,0,33.46,18a9.6,9.6,0,0,0,1.152-4.852A9.356,9.356,0,0,0,33.1,7.679a7.356,7.356,0,0,0-3.873-2.951,27.689,27.689,0,0,0-8.1-.894H4.639V40.262h5.751v-16.3h3c1.409,0,4.032,0,5.224,1.791L30.887,44.178l-9.1,13.338h7.278L36.446,46.4Zm-24.526-37.7H10.391V7.67H18.4c2.8,0,4.667.485,5.876,1.524a5.658,5.658,0,0,1,1.9,4.488,5.716,5.716,0,0,1-1.169,3.527,5.234,5.234,0,0,1-3.136,2,17.308,17.308,0,0,1-3.693.6Zm-3.951-3.834h3.951a16.207,16.207,0,0,0,2.858-.51l.044-.01a1.376,1.376,0,0,0,.87-.562,1.913,1.913,0,0,0,.393-1.213,1.86,1.86,0,0,0-.566-1.58c-.117-.1-.824-.6-3.378-.6H14.225Z" transform="translate(-0.701 -0.002)" fill="#bb2929"/>
    </g>
  </g>
</svg>
