<svg xmlns="http://www.w3.org/2000/svg" width="76.054" height="75.875" viewBox="0 0 76.054 75.875">
  <path id="Path_5346" data-name="Path 5346" d="M216.813,153.491l-7.121-2.266a2.145,2.145,0,0,0-.175-.214c-.045-.043-.093-.076-.14-.114l-1.838-6.887a2.117,2.117,0,0,0-3.545-.95l-6.007,6.012a2.12,2.12,0,0,0-.548,2.043l1.782,6.692a2.013,2.013,0,0,0-.088.2,2.1,2.1,0,0,0-.089.479l-18.68,18.676a10.1,10.1,0,0,0-12.634,1.339,10.107,10.107,0,1,0,15.629,1.658l4.57-4.57a16.48,16.48,0,0,1-13.052,26.549h0a16.494,16.494,0,0,1-11.656-28.157,16.59,16.59,0,0,1,18.345-3.414,2.118,2.118,0,0,0,1.718-3.872,20.853,20.853,0,0,0-23.059,4.291,20.73,20.73,0,0,0,14.653,35.39h0a20.73,20.73,0,0,0,16.078-33.815l5.457-5.454a28.394,28.394,0,1,1-7.391-6.117,2.119,2.119,0,1,0,2.111-3.674,32.73,32.73,0,1,0,8.283,6.787l2.709-2.708a2.242,2.242,0,0,0,.237-.031c.056-.016.1-.041.157-.059l7,2.23a2.171,2.171,0,0,0,.643.1,2.118,2.118,0,0,0,1.5-.62l6.007-6.012a2.118,2.118,0,0,0-.856-3.516Zm-12.418-4.837.837,3.139a1.851,1.851,0,0,0-.09.207,2.181,2.181,0,0,0-.089.479l-2.263,2.265-.942-3.54ZM179.027,189.8a5.871,5.871,0,1,1-1.782-9.518l-3.867,3.867a2.118,2.118,0,1,0,2.995,3l3.863-3.863a5.869,5.869,0,0,1-1.21,6.517Zm30.548-30.691-3.917-1.247,2.466-2.466a2.194,2.194,0,0,0,.249-.04c.053-.015.1-.04.152-.057l3.685,1.173Z" transform="translate(-142.235 -142.438)" fill="#03722f"/>
</svg>
