<svg id="Group_5008" data-name="Group 5008" xmlns="http://www.w3.org/2000/svg" xmlns:xlink="http://www.w3.org/1999/xlink" width="30" height="27.907" viewBox="0 0 30 27.907">
  <defs>
    <clipPath id="clip-path">
      <rect id="Rectangle_4420" data-name="Rectangle 4420" width="30" height="27.907" fill="none"/>
    </clipPath>
    <clipPath id="clip-path-3">
      <rect id="Rectangle_4411" data-name="Rectangle 4411" width="9.767" height="17.442" fill="none"/>
    </clipPath>
    <clipPath id="clip-path-4">
      <rect id="Rectangle_4412" data-name="Rectangle 4412" width="9.07" height="17.442" fill="none"/>
    </clipPath>
    <clipPath id="clip-path-5">
      <rect id="Rectangle_4413" data-name="Rectangle 4413" width="9.07" height="16.047" fill="none"/>
    </clipPath>
    <clipPath id="clip-path-6">
      <rect id="Rectangle_4414" data-name="Rectangle 4414" width="8.372" height="16.047" fill="none"/>
    </clipPath>
    <clipPath id="clip-path-7">
      <path id="Rectangle_4417" data-name="Rectangle 4417" d="M3.16,0h9.029a3.16,3.16,0,0,1,3.16,3.16v9.029a3.16,3.16,0,0,1-3.16,3.16H3.159A3.159,3.159,0,0,1,0,12.19V3.16A3.16,3.16,0,0,1,3.16,0Z" fill="none"/>
    </clipPath>
    <linearGradient id="linear-gradient" x1="0.134" y1="1.165" x2="0.153" y2="1.165" gradientUnits="objectBoundingBox">
      <stop offset="0" stop-color="#18884f"/>
      <stop offset="0.5" stop-color="#117e43"/>
      <stop offset="1" stop-color="#0b6631"/>
    </linearGradient>
  </defs>
  <g id="Group_5006" data-name="Group 5006" clip-path="url(#clip-path)">
    <g id="Group_5001" data-name="Group 5001" transform="translate(0 0)">
      <g id="Group_5000" data-name="Group 5000" clip-path="url(#clip-path)">
        <path id="Path_4303" data-name="Path 4303" d="M29.1,29.673,17.237,27.58V43.045a1.279,1.279,0,0,0,1.279,1.279H38.981a1.279,1.279,0,0,0,1.279-1.279v-5.7Z" transform="translate(-10.26 -16.417)" fill="#185c37"/>
        <path id="Path_4304" data-name="Path 4304" d="M29.1,0H18.516a1.279,1.279,0,0,0-1.279,1.279v5.7L29.1,13.954l6.279,2.093,4.884-2.093V6.977Z" transform="translate(-10.26 0)" fill="#21a366"/>
        <rect id="Rectangle_4410" data-name="Rectangle 4410" width="11.861" height="6.977" transform="translate(6.977 6.977)" fill="#107c41"/>
        <g id="Group_4990" data-name="Group 4990" transform="translate(6.977 5.581)" opacity="0.1" style="mix-blend-mode: normal;isolation: isolate">
          <g id="Group_4989" data-name="Group 4989">
            <g id="Group_4988" data-name="Group 4988" clip-path="url(#clip-path-3)">
              <path id="Path_4305" data-name="Path 4305" d="M25.726,13.79H17.237V31.232h8.489A1.283,1.283,0,0,0,27,29.953V15.069a1.283,1.283,0,0,0-1.279-1.279" transform="translate(-17.237 -13.79)"/>
            </g>
          </g>
        </g>
        <g id="Group_4993" data-name="Group 4993" transform="translate(6.977 6.279)" opacity="0.2" style="mix-blend-mode: normal;isolation: isolate">
          <g id="Group_4992" data-name="Group 4992">
            <g id="Group_4991" data-name="Group 4991" clip-path="url(#clip-path-4)">
              <path id="Path_4306" data-name="Path 4306" d="M25.028,15.514H17.237V32.956h7.791a1.283,1.283,0,0,0,1.279-1.279V16.793a1.283,1.283,0,0,0-1.279-1.279" transform="translate(-17.237 -15.514)"/>
            </g>
          </g>
        </g>
        <g id="Group_4996" data-name="Group 4996" transform="translate(6.977 6.279)" opacity="0.2" style="mix-blend-mode: normal;isolation: isolate">
          <g id="Group_4995" data-name="Group 4995">
            <g id="Group_4994" data-name="Group 4994" clip-path="url(#clip-path-5)">
              <path id="Path_4307" data-name="Path 4307" d="M25.028,15.514H17.237V31.56h7.791a1.283,1.283,0,0,0,1.279-1.279V16.793a1.283,1.283,0,0,0-1.279-1.279" transform="translate(-17.237 -15.514)"/>
            </g>
          </g>
        </g>
        <g id="Group_4999" data-name="Group 4999" transform="translate(6.977 6.279)" opacity="0.2" style="mix-blend-mode: normal;isolation: isolate">
          <g id="Group_4998" data-name="Group 4998">
            <g id="Group_4997" data-name="Group 4997" clip-path="url(#clip-path-6)">
              <path id="Path_4308" data-name="Path 4308" d="M24.331,15.514H17.238V31.56h7.093a1.283,1.283,0,0,0,1.279-1.279V16.793a1.283,1.283,0,0,0-1.279-1.279" transform="translate(-17.238 -15.514)"/>
            </g>
          </g>
        </g>
      </g>
    </g>
    <g id="Group_5003" data-name="Group 5003" transform="translate(0 6.279)">
      <g id="Group_5002" data-name="Group 5002" clip-path="url(#clip-path-7)">
        <rect id="Rectangle_4416" data-name="Rectangle 4416" width="20.967" height="20.967" transform="translate(-6.647 3.838) rotate(-30.001)" fill="url(#linear-gradient)"/>
      </g>
    </g>
    <g id="Group_5005" data-name="Group 5005" transform="translate(0 0)">
      <g id="Group_5004" data-name="Group 5004" clip-path="url(#clip-path)">
        <path id="Path_4309" data-name="Path 4309" d="M9.786,32.517l2.69-4.168L10.011,24.2h1.983l1.345,2.651c.124.252.209.439.255.563h.017q.132-.3.279-.586L15.329,24.2h1.82l-2.528,4.121,2.592,4.192H15.277l-1.554-2.91a2.425,2.425,0,0,1-.185-.389h-.023a1.852,1.852,0,0,1-.18.377l-1.6,2.922Z" transform="translate(-5.825 -14.407)" fill="#fff"/>
        <path id="Path_4310" data-name="Path 4310" d="M56.425,0H46.541V6.977H57.7v-5.7A1.279,1.279,0,0,0,56.425,0" transform="translate(-27.704 0)" fill="#33c481"/>
        <rect id="Rectangle_4418" data-name="Rectangle 4418" width="11.163" height="6.977" transform="translate(18.837 13.954)" fill="#107c41"/>
      </g>
    </g>
  </g>
</svg>
