<svg id="Component_11_29" data-name="Component 11 – 29" xmlns="http://www.w3.org/2000/svg" width="18" height="18" viewBox="0 0 18 18">
  <g id="Group_4084" data-name="Group 4084">
    <path id="Path_4195" data-name="Path 4195" d="M27.75,36.75a9,9,0,1,1,9-9A9,9,0,0,1,27.75,36.75Zm0-17.143a8.143,8.143,0,1,0,8.143,8.143A8.139,8.139,0,0,0,27.75,19.607Z" transform="translate(-18.75 -18.75)" fill="#3ac14b"/>
  </g>
  <g id="Group_4088" data-name="Group 4088" transform="translate(8.357 4.929)">
    <g id="Group_4086" data-name="Group 4086" transform="translate(0.214 2.357)">
      <g id="Group_4085" data-name="Group 4085">
        <path id="Path_4196" data-name="Path 4196" d="M144.179,130.786a.43.43,0,0,1-.429-.429v-4.929a.429.429,0,1,1,.857,0v4.929A.43.43,0,0,1,144.179,130.786Z" transform="translate(-143.75 -125)" fill="#3ac14b"/>
      </g>
    </g>
    <g id="Group_4087" data-name="Group 4087" transform="translate(0 0)">
      <circle id="Ellipse_79" data-name="Ellipse 79" cx="0.429" cy="0.429" r="0.429" transform="translate(0.214 0.214)" fill="#3ac14b"/>
      <path id="Path_4197" data-name="Path 4197" d="M141.268,91.911a.643.643,0,1,1,.643-.643A.631.631,0,0,1,141.268,91.911Zm0-.857a.214.214,0,1,0,.214.214A.2.2,0,0,0,141.268,91.054Z" transform="translate(-140.625 -90.625)" fill="#3ac14b"/>
    </g>
  </g>
</svg>
