<svg id="Group_4986" data-name="Group 4986" xmlns="http://www.w3.org/2000/svg" xmlns:xlink="http://www.w3.org/1999/xlink" width="148.164" height="95.234" viewBox="0 0 148.164 95.234">
  <defs>
    <clipPath id="clip-path">
      <rect id="Rectangle_4409" data-name="Rectangle 4409" width="148.164" height="95.234" fill="#e0e2e5"/>
    </clipPath>
  </defs>
  <g id="Group_4985" data-name="Group 4985" clip-path="url(#clip-path)">
    <path id="Path_4300" data-name="Path 4300" d="M107.095,84.652H95.243a5.291,5.291,0,0,1,0-10.581h10.264l1.005-.264a5.287,5.287,0,0,1,2.7.264h24.179a18.355,18.355,0,0,0,4.18-11.8,16.348,16.348,0,0,0-20.581-16.718,5.267,5.267,0,0,1-6.878-3.863,37.618,37.618,0,0,0-36.031-31.11A37.618,37.618,0,0,0,38.05,41.69a5.269,5.269,0,0,1-6.879,3.863,16.347,16.347,0,0,0-20.58,16.718,18.36,18.36,0,0,0,4.127,11.8H39.16a5.626,5.626,0,0,1,2.487,0H52.917a5.291,5.291,0,1,1,0,10.581H12.445a5.291,5.291,0,0,1-3.652-1.429A29,29,0,0,1,.011,62.272,27.248,27.248,0,0,1,29.057,34.337,47.619,47.619,0,0,1,74.081,0a47.618,47.618,0,0,1,45.026,34.337,21.04,21.04,0,0,1,2.592,0,27.3,27.3,0,0,1,26.454,28.094,28.988,28.988,0,0,1-8.836,21.164,5.285,5.285,0,0,1-3.65,1.427H107.1Z" transform="translate(0)" fill="#e0e2e5"/>
    <path id="Path_4301" data-name="Path 4301" d="M197.708,190.318a5.29,5.29,0,0,1-5.29-5.291V153.282a5.291,5.291,0,1,1,10.581,0v31.745a5.292,5.292,0,0,1-5.291,5.291Z" transform="translate(-123.629 -95.084)" fill="#e0e2e5"/>
    <path id="Path_4302" data-name="Path 4302" d="M185.015,144.79a5.291,5.291,0,0,1-3.757-1.533l-12.116-12.169-12.116,12.169a5.313,5.313,0,0,1-7.513-7.513l15.872-15.872a5.29,5.29,0,0,1,7.513,0l15.872,15.872a5.29,5.29,0,0,1-3.757,9.047Z" transform="translate(-95.063 -76.012)" fill="#e0e2e5"/>
  </g>
</svg>
