<svg xmlns="http://www.w3.org/2000/svg" width="160.97" height="40.192" viewBox="0 0 160.97 40.192">
  <g id="NEXiA_Enabling_Pharmacy" data-name="NEXiA Enabling Pharmacy" transform="translate(-660.03 -405.905)">
    <g id="Group_5538" data-name="Group 5538">
      <path id="Path_5267" data-name="Path 5267" d="M695.631,415.688c-.063-.1-.124-.209-.184-.316a9.844,9.844,0,0,0-.7-1.082l-.238-.329a3.1,3.1,0,0,0-.267-.34L693.7,413a13.2,13.2,0,0,0-5.6-3.512,16.007,16.007,0,0,0-6.5-.57,19.318,19.318,0,0,0-3.154.662l-.053.017c-.24.07-.48.143-.713.228-.08.029-.163.058-.243.085-.172.058-.344.119-.512.192l-.211.087-.031-.005c-.039-.007-.078-.015-.117-.019a16.715,16.715,0,0,0-3.655-.175q-.681.051-1.3.153a16.763,16.763,0,0,1,1.958-1.058,14.563,14.563,0,0,1,3.308-1.089l.083,1.242a.2.2,0,0,0,.318.155l2.588-1.737a.205.205,0,0,0-.024-.354l-2.8-1.373a.2.2,0,0,0-.2.015.2.2,0,0,0-.09.184l.078,1.133a15.363,15.363,0,0,0-3.639.975,19.332,19.332,0,0,0-3.884,2.1c-.424.3-.866.628-1.327.994a9.55,9.55,0,0,0-2.054,1.478,11.336,11.336,0,0,0-2.084,2.647c-.318.422-.573.783-.8,1.13a18.017,18.017,0,0,0-1.968,4.073,19.234,19.234,0,0,0-.965,4.435,19.866,19.866,0,0,0,.116,4.543,20.227,20.227,0,0,0,1.162,4.4,19.829,19.829,0,0,0,4.369,6.565c.284.281.573.553.864.808a19.1,19.1,0,0,0,7.983,4.143,18.846,18.846,0,0,0,4.5.544,18.4,18.4,0,0,0,11.663-4.144l.735.847a.205.205,0,0,0,.35-.066l1.019-2.945a.205.205,0,0,0-.039-.2.209.209,0,0,0-.194-.068l-3.059.59a.2.2,0,0,0-.117.334l.823.949a17.74,17.74,0,0,1-7.009,3.059,17.975,17.975,0,0,1-4.17.34,17.632,17.632,0,0,1-4.131-.621,17.982,17.982,0,0,1-6.016-2.924,9.817,9.817,0,0,0,1.584-.512,17.254,17.254,0,0,0,2.132-1.057c.526.339,1.058.655,1.577.934A19.232,19.232,0,0,0,681,442.788a.267.267,0,0,0,.087-.527,20.5,20.5,0,0,1-6.3-2.564c-.345-.211-.689-.434-1.046-.682.713-.456,1.424-.948,2.169-1.5.41-.3.818-.614,1.22-.929.294-.238.582-.481.871-.726a28.282,28.282,0,0,0,3.782,2.487c.238.131.478.257.723.378l.184.1c.178.09.362.184.549.259.463.207.956.408,1.513.617a12.935,12.935,0,0,0,3.212.718.262.262,0,0,0,.27-.19.267.267,0,0,0-.177-.332,17.849,17.849,0,0,1-2.846-1.181,29.906,29.906,0,0,1-2.681-1.555c-.812-.524-1.642-1.111-2.532-1.8-.253-.192-.5-.391-.747-.589.5-.444.919-.828,1.312-1.2.767-.723,1.506-1.488,2.14-2.15,1.533-1.591,2.935-3.258,3.988-4.534.255-.315.509-.633.762-.951.747.91,1.438,1.82,2.054,2.708a31.22,31.22,0,0,1,2.116,3.5,16.3,16.3,0,0,1,1.441,3.785.26.26,0,0,0,.271.206.257.257,0,0,0,.185-.088.266.266,0,0,0,.068-.2,13.594,13.594,0,0,0-.995-4.182c-.136-.328-.277-.655-.424-.985l-.156-.33c-.1-.211-.2-.425-.3-.631-.3-.6-.645-1.189-.98-1.756l-.066-.109a34.933,34.933,0,0,0-2.222-3.2c.522-.681,1.024-1.358,1.495-2.023l.849.658a.2.2,0,0,0,.2.026.2.2,0,0,0,.126-.162l.422-3.089a.2.2,0,0,0-.077-.189.2.2,0,0,0-.2-.026l-2.884,1.176a.2.2,0,0,0-.049.352l1.007.781c-.483.585-.98,1.174-1.482,1.754-.772-.939-1.6-1.853-2.455-2.719-.352-.34-.711-.672-1.073-1.007l-1.259-1.153c-.267-.237-.55-.47-.82-.686-.533-.422-1.087-.842-1.693-1.283l-.124-.088c-.247-.174-.495-.351-.752-.526l-.31-.2c-.194-.123-.391-.25-.59-.371l-.172-.1c-.541-.325-1.1-.662-1.679-.953s-1.208-.592-1.943-.9c-.568-.221-1.067-.4-1.543-.544a21.426,21.426,0,0,1,2.608-1.39c.463-.2.949-.393,1.446-.567a22.206,22.206,0,0,1,4.9,1.387l-.558,1.131a.207.207,0,0,0,.012.2.2.2,0,0,0,.184.09l3.11-.2a.2.2,0,0,0,.17-.114.207.207,0,0,0-.012-.2l-1.73-2.591a.205.205,0,0,0-.354.024l-.478.968A20.7,20.7,0,0,0,680.057,411c-.163-.056-.335-.111-.514-.167a17.483,17.483,0,0,1,2.217-.362,14.491,14.491,0,0,1,5.839.573,11.772,11.772,0,0,1,4.959,3.027l.509.556a2.352,2.352,0,0,1,.221.269l.23.306a8.042,8.042,0,0,1,.617.9c.065.107.131.214.2.313.078.134.148.274.216.413l.121.24.165.327c.032.071.061.141.09.214l.323.8.259.844c.022.073.046.143.063.213l.08.364c.02.088.039.177.059.265.033.153.07.3.094.453s.039.284.061.427a8.639,8.639,0,0,1,.111,1.056,16.252,16.252,0,0,1-.068,2.954,19.53,19.53,0,0,1-1.637,5.7.267.267,0,0,0,.473.245,17.769,17.769,0,0,0,2.225-5.8,15.22,15.22,0,0,0-.158-6.375A12.914,12.914,0,0,0,695.631,415.688Zm-28.965,18.485a14.689,14.689,0,0,0-1.327,2.856c-.046.152-.092.31-.134.477a18.017,18.017,0,0,1-2.285-4.092,18.087,18.087,0,0,1-1.23-8.2,17.214,17.214,0,0,1,.507-3.013c0,.369.02.74.049,1.111a19.664,19.664,0,0,0,2.038,7.077A23.619,23.619,0,0,0,666.666,434.173Zm.155,3.29a11.972,11.972,0,0,1,.859-2.069c.286.325.56.616.829.887a23.947,23.947,0,0,0,2.645,2.334c-.454.24-.866.439-1.257.6a7.956,7.956,0,0,1-1.358.451,2.553,2.553,0,0,1-1.3.017.851.851,0,0,1-.349-.225.96.96,0,0,1-.073-.088,1.2,1.2,0,0,1-.177-.555A3.88,3.88,0,0,1,666.821,437.463Zm4.495-7.557c.131-.17.267-.335.4-.5.129.177.26.352.391.524a32.939,32.939,0,0,0,4.388,4.7c.083.073.167.145.252.218a42.274,42.274,0,0,1-4.257,3.008l-.177.105a25.135,25.135,0,0,1-2.792-2.615c-.372-.406-.74-.84-1.1-1.291A41.451,41.451,0,0,1,671.316,429.906Zm3.428-4.012.922.888a.2.2,0,0,0,.34-.1l.749-3.025a.211.211,0,0,0-.056-.2.2.2,0,0,0-.2-.048l-2.993.864a.2.2,0,0,0-.141.148.209.209,0,0,0,.056.2l.733.706c-.207.187-.413.374-.617.568q-.545.523-1.077,1.055c-.191.189-.378.383-.562.58-.248-.3-.491-.6-.731-.9-.652-.825-1.268-1.672-1.834-2.513a.267.267,0,0,0-.465.257,20.973,20.973,0,0,0,2.171,4.073c-.219.24-.437.48-.65.723-.748.849-1.381,1.62-1.929,2.363-.323.429-.636.868-.936,1.307A22.6,22.6,0,0,1,665.7,429.7a18.538,18.538,0,0,1-1.81-6.525,12.6,12.6,0,0,1,1.128-6.577,9.807,9.807,0,0,1,1.955-2.712,8.59,8.59,0,0,1,2.79-1.808,12.759,12.759,0,0,1,4.823-.875,21.07,21.07,0,0,0-2.732,1.807,10.052,10.052,0,0,0-1.038-.131.267.267,0,0,0-.279.2.265.265,0,0,0,.194.323h0c.151.039.308.08.473.131a20.475,20.475,0,0,0-4.694,5.691.268.268,0,0,0,.08.347.265.265,0,0,0,.371-.063A22.55,22.55,0,0,1,672.527,414c.626.253,1.271.554,1.97.917a32.8,32.8,0,0,1,3.483,2.15c1.073.752,2.13,1.577,3.232,2.52l.276.24c.168.144.332.287.493.437l.749.708c.177.17.357.338.534.505.32.3.643.6.956.912.9.907,1.763,1.837,2.562,2.766-.3.342-.607.681-.915,1.019-1.574,1.734-2.884,3.1-4.122,4.286-1.2,1.157-2.44,2.273-3.692,3.321q-.229-.2-.458-.4a51.418,51.418,0,0,1-4.428-4.371q-.294-.332-.577-.668C673.262,427.538,673.985,426.716,674.744,425.894Z" fill="#8141f2"/>
      <path id="Path_5268" data-name="Path 5268" d="M732.541,416.869h-2.5a.613.613,0,0,0-.613.614v10.575a.613.613,0,0,1-.963.5l-16.29-11.349a.613.613,0,0,0-.964.5V434.5a.613.613,0,0,0,.614.614h2.5a.613.613,0,0,0,.614-.614V424.176a.613.613,0,0,1,.958-.507l16.3,11.12a.613.613,0,0,0,.958-.507v-16.8A.613.613,0,0,0,732.541,416.869Z" fill="#8141f2"/>
      <path id="Path_5269" data-name="Path 5269" d="M756.973,416.869H739.72a.613.613,0,0,0-.614.614v17.023a.613.613,0,0,0,.614.613h17.253a.613.613,0,0,0,.614-.613v-1.914a.613.613,0,0,0-.614-.614H743.482a.613.613,0,0,1-.613-.614v-3.45a.612.612,0,0,1,.613-.613h10.941a.613.613,0,0,0,.614-.614v-1.912a.613.613,0,0,0-.614-.613H743.482a.613.613,0,0,1-.613-.614v-2.96a.613.613,0,0,1,.613-.614h13.491a.613.613,0,0,0,.614-.613v-1.88A.616.616,0,0,0,756.973,416.869Z" fill="#8141f2"/>
      <path id="Path_5270" data-name="Path 5270" d="M773.3,426.287a.615.615,0,0,1,0-.849l7.176-7.533a.613.613,0,0,0-.444-1.036h-3a.613.613,0,0,0-.456.2l-5.478,6.123a.612.612,0,0,1-.912,0l-5.509-6.125a.616.616,0,0,0-.456-.2h-2.948a.613.613,0,0,0-.446,1.033l7.125,7.538a.613.613,0,0,1,0,.844l-7.44,7.8a.614.614,0,0,0,.444,1.036h2.972a.618.618,0,0,0,.456-.2l5.8-6.424a.614.614,0,0,1,.91,0l5.805,6.424a.611.611,0,0,0,.456.2h3a.613.613,0,0,0,.442-1.039Z" fill="#8141f2"/>
      <path id="Path_5271" data-name="Path 5271" d="M787.682,422.381h-2.338a.613.613,0,0,0-.614.614v11.513a.613.613,0,0,0,.614.614h2.338a.613.613,0,0,0,.614-.614V422.995A.614.614,0,0,0,787.682,422.381Z" fill="#8141f2"/>
      <path id="Path_5272" data-name="Path 5272" d="M787.682,416.869h-2.338a.613.613,0,0,0-.614.614v2.111a.613.613,0,0,0,.614.613h2.338a.613.613,0,0,0,.614-.613v-2.111A.614.614,0,0,0,787.682,416.869Z" fill="#8141f2"/>
      <path id="Path_5273" data-name="Path 5273" d="M814.722,434.171l-11.033-16.846a.615.615,0,0,0-1.026,0l-11.034,16.846a.613.613,0,0,0,.512.948h2.681a.615.615,0,0,0,.519-.283l1.96-3.093a.61.61,0,0,1,.517-.284h10.708a.613.613,0,0,1,.519.284l1.96,3.093a.612.612,0,0,0,.519.283h2.681A.613.613,0,0,0,814.722,434.171Zm-9-5.888H800.6a.613.613,0,0,1-.516-.944l2.574-4.031a.613.613,0,0,1,1.036,0l2.552,4.032A.614.614,0,0,1,805.726,428.283Z" fill="#8141f2"/>
    </g>
    <g id="Group_5539" data-name="Group 5539">
      <path id="Path_5274" data-name="Path 5274" d="M817.308,417.369h-.888v2.455h-.468v-2.455h-.888v-.378H817.3v.378ZM821,419.824h-.468v-2.365h-.015l-.929,2.365h-.3l-.929-2.365h-.015v2.365h-.468v-2.833h.723l.847,2.151.832-2.151H821v2.833Z" fill="#8141f2"/>
    </g>
  </g>
</svg>
