<svg xmlns="http://www.w3.org/2000/svg" width="16" height="11.999" viewBox="0 0 16 11.999">
  <path id="sign-out" d="M3,64H5.625A.376.376,0,0,1,6,64.375v.75a.376.376,0,0,1-.375.375H3A1.5,1.5,0,0,0,1.5,67v6A1.5,1.5,0,0,0,3,74.5H5.625A.376.376,0,0,1,6,74.874v.75A.376.376,0,0,1,5.625,76H3a3,3,0,0,1-3-3V67A3,3,0,0,1,3,64Zm7.222.609-.612.612a.371.371,0,0,0,.006.534l3.534,3.431H5.375A.376.376,0,0,0,5,69.562v.875a.376.376,0,0,0,.375.375h7.775L9.615,74.24a.376.376,0,0,0-.006.534l.612.612a.375.375,0,0,0,.531,0l5.137-5.125a.375.375,0,0,0,0-.531l-5.137-5.125A.378.378,0,0,0,10.221,64.609Z" transform="translate(0 -64)" fill="#00aeef"/>
</svg>
