<svg xmlns="http://www.w3.org/2000/svg" xmlns:xlink="http://www.w3.org/1999/xlink" width="87" height="87" viewBox="0 0 87 87">
  <defs>
    <clipPath id="clip-path">
      <rect id="Rectangle_147837" data-name="Rectangle 147837" width="29.209" height="29.171" fill="#6513f0"/>
    </clipPath>
    <clipPath id="clip-path-2">
      <rect id="Rectangle_147838" data-name="Rectangle 147838" width="29.171" height="29.209" fill="#6513f0"/>
    </clipPath>
    <clipPath id="clip-path-3">
      <rect id="Rectangle_147839" data-name="Rectangle 147839" width="58.013" height="58.013" fill="#6513f0"/>
    </clipPath>
  </defs>
  <g id="Group_5689" data-name="Group 5689" transform="translate(-139.21 -564)">
    <g id="Group_5682" data-name="Group 5682" transform="translate(169.85 564)">
      <g id="Group_5681" data-name="Group 5681" clip-path="url(#clip-path)">
        <g id="Group_5680" data-name="Group 5680" transform="translate(0.172)">
          <path id="Path_5352" data-name="Path 5352" d="M185.491,580.314v-3.627l-4.1-1.359a11.991,11.991,0,0,0-.8-1.94l1.922-3.861-2.466-2.555-3.951,1.922a12.234,12.234,0,0,0-1.938-.8L172.8,564h-3.625l-1.359,4.1a12.252,12.252,0,0,0-1.94.8l-3.859-1.922-2.557,2.557,1.922,3.859a12.163,12.163,0,0,0-.8,1.94l-4.1,1.359v3.627l4.1,1.359a12.1,12.1,0,0,0,.8,1.94l-1.922,3.95,2.555,2.555,3.861-1.92a12.1,12.1,0,0,0,1.94.8L169.177,593H172.8l1.361-4.1a12.059,12.059,0,0,0,1.938-.8l3.951,1.922,2.466-2.466-1.922-3.95a11.928,11.928,0,0,0,.8-1.94Zm-14.5,3.625v0a5.437,5.437,0,1,1,3.844-1.592,5.432,5.432,0,0,1-3.844,1.592Z" transform="translate(-156.49 -564)" fill="#6513f0"/>
        </g>
      </g>
    </g>
    <g id="Group_5685" data-name="Group 5685" transform="translate(197.039 585.639)">
      <g id="Group_5684" data-name="Group 5684" clip-path="url(#clip-path-2)">
        <g id="Group_5683" data-name="Group 5683" transform="translate(0.17 0.11)">
          <path id="Path_5353" data-name="Path 5353" d="M200.737,592.511v-3.625l-4.1-1.359,0,0a11.971,11.971,0,0,0-.8-1.938l1.922-3.861-2.466-2.557-3.951,1.922a12.181,12.181,0,0,0-1.938-.8l-1.361-4.1h-3.623l-1.359,4.1a12.27,12.27,0,0,0-1.94.8l-3.861-1.92-2.555,2.555,1.92,3.861a12.138,12.138,0,0,0-.8,1.938l-4.1,1.361v3.625l4.1,1.359h0a12.093,12.093,0,0,0,.8,1.94l-1.92,3.95,2.555,2.555,3.861-1.92a12.026,12.026,0,0,0,1.94.8l1.359,4.007h3.625l1.359-4.1a12,12,0,0,0,1.938-.8l3.951,1.922,2.466-2.466-1.922-3.95a11.927,11.927,0,0,0,.8-1.94Zm-14.5,3.625a5.44,5.44,0,1,1,3.846-1.594A5.436,5.436,0,0,1,186.237,596.136Z" transform="translate(-171.736 -576.197)" fill="#6513f0"/>
        </g>
      </g>
    </g>
    <g id="Group_5688" data-name="Group 5688" transform="translate(139.21 592.987)">
      <g id="Group_5687" data-name="Group 5687" clip-path="url(#clip-path-3)">
        <g id="Group_5686" data-name="Group 5686" transform="translate(0 0.105)">
          <path id="Path_5354" data-name="Path 5354" d="M195.959,604.113l-6.815-2.266c-.289-.8-.58-1.523-.906-2.211l3.208-6.434h0a1.814,1.814,0,0,0-.344-2.1l-4.766-4.766a1.815,1.815,0,0,0-2.086-.344l-6.451,3.3c-.688-.326-1.414-.617-2.211-.906l-2.265-6.815h0a1.808,1.808,0,0,0-1.7-1.25H164.8a1.806,1.806,0,0,0-1.7,1.25l-2.266,6.815c-.8.289-1.523.579-2.211.906l-6.435-3.3a1.808,1.808,0,0,0-2.1.344l-4.768,4.766a1.813,1.813,0,0,0-.344,2.085l3.3,6.453c-.326.688-.617,1.414-.906,2.211l-6.906,2.266a1.81,1.81,0,0,0-1.25,1.7v6.815a1.81,1.81,0,0,0,1.25,1.7l6.815,2.266c.291.8.58,1.523.906,2.211l-3.208,6.434a1.814,1.814,0,0,0,.344,2.1l4.768,4.766a1.81,1.81,0,0,0,2.083.344l6.434-3.208c.69.326,1.414.615,2.211.906l2.266,6.815h0a1.81,1.81,0,0,0,1.7,1.25H171.6a1.808,1.808,0,0,0,1.7-1.25l2.266-6.815c.8-.291,1.523-.58,2.211-.906l6.434,3.208h0a1.816,1.816,0,0,0,2.122-.344l4.766-4.766a1.813,1.813,0,0,0,.344-2.084l-3.208-6.434c.326-.69.615-1.414.906-2.211l6.815-2.266v0a1.806,1.806,0,0,0,1.25-1.7v-6.833a1.808,1.808,0,0,0-1.25-1.7Zm-2.375,7.249c-6.815,2.266-7.249,2.14-7.594,3.3-1.812,5.747-2.844,2.1,1.632,11.075l-2.955,2.955c-6.434-3.21-6.633-3.625-7.721-3.01-5.346,2.828-3.372-.924-6.651,9.064h-4.169c-2.266-6.815-2.14-7.25-3.3-7.594-5.745-1.813-2.1-2.846-11.075,1.63l-2.953-3.1c3.208-6.433,3.625-6.633,3.008-7.721-2.828-5.346.924-3.3-8.971-6.651v-4.169c6.813-2.265,7.25-2.14,7.593-3.354,1.813-5.745,2.846-2.1-1.63-11.073l2.953-2.955c6.453,3.228,6.635,3.625,7.723,3.01,5.437-2.828,3.37.924,6.651-8.973h4.169c2.265,6.815,2.138,7.25,3.3,7.594,5.745,1.813,2.1,2.846,11.073-1.632l2.955,2.955c-3.208,6.433-3.625,6.633-3.008,7.721,2.826,5.348-.925,3.372,8.971,6.653Z" transform="translate(-139.21 -580.315)" fill="#6513f0"/>
        </g>
      </g>
    </g>
    <path id="Path_5355" data-name="Path 5355" d="M153.533,604.572l3.625-10.875a1.817,1.817,0,1,1,3.443,1.159l-3.625,10.875h0a1.817,1.817,0,0,1-3.443-1.159Z" transform="translate(11.142 22.288)" fill="#6513f0"/>
    <path id="Path_5356" data-name="Path 5356" d="M160.341,604.356a1.812,1.812,0,0,1-1.287-3.1l2.357-2.338-2.356-2.339h0a1.82,1.82,0,0,1,2.575-2.573l3.625,3.625h0a1.81,1.81,0,0,1,0,2.573c-3.95,3.952-3.932,4.151-4.911,4.151Z" transform="translate(15.121 23.082)" fill="#6513f0"/>
    <path id="Path_5357" data-name="Path 5357" d="M153.8,604.356c-.979,0-1.034-.271-4.913-4.151a1.815,1.815,0,0,1,0-2.573l3.625-3.625h0a1.82,1.82,0,1,1,2.575,2.573l-2.357,2.339,2.357,2.338h0a1.812,1.812,0,0,1-1.287,3.1Z" transform="translate(7.16 23.082)" fill="#6513f0"/>
  </g>
</svg>
