<svg id="Group_4888" data-name="Group 4888" xmlns="http://www.w3.org/2000/svg" xmlns:xlink="http://www.w3.org/1999/xlink" width="31.325" height="36" viewBox="0 0 31.325 36">
  <defs>
    <clipPath id="clip-path">
      <rect id="Rectangle_4285" data-name="Rectangle 4285" width="31.325" height="36" fill="#eeb20e"/>
    </clipPath>
  </defs>
  <g id="Group_4887" data-name="Group 4887" clip-path="url(#clip-path)">
    <path id="Path_4243" data-name="Path 4243" d="M27.77,10.381l.871-.864a1.311,1.311,0,0,0,0-1.856l-.057-.026a1.318,1.318,0,0,0-1.856,0l-.838.838a15.664,15.664,0,1,0,1.876,1.921ZM15.609,33.423a5.433,5.433,0,1,0,0-.025ZM10.751,1.28A1.28,1.28,0,0,1,12.031,0h7.041a1.28,1.28,0,1,1,0,2.56H12.031a1.281,1.281,0,0,1-1.28-1.28M26.03,20.2A10.324,10.324,0,0,1,15.705,30.441a10.056,10.056,0,0,1-6.957-2.8L15.609,20.2V9.959c5.121,0,10.421,4.6,10.421,10.241" transform="translate(0)" fill="#eeb20e"/>
  </g>
</svg>
