<svg id="Group_4940" data-name="Group 4940" xmlns="http://www.w3.org/2000/svg" xmlns:xlink="http://www.w3.org/1999/xlink" width="30" height="28.28" viewBox="0 0 30 28.28">
  <defs>
    <clipPath id="clip-path">
      <rect id="Rectangle_4352" data-name="Rectangle 4352" width="30" height="28.28" fill="#6513f0"/>
    </clipPath>
  </defs>
  <g id="Group_4925" data-name="Group 4925" clip-path="url(#clip-path)">
    <path id="Path_4259" data-name="Path 4259" d="M26.422,0a3.45,3.45,0,0,0-3.44,3.44,3.3,3.3,0,0,0,1.032,2.442,2.094,2.094,0,0,0,.551.413L21.743,14c-.1,0-.206-.034-.275-.034a3.422,3.422,0,0,0-3.062,1.892L13.452,13.8c0-.1.034-.206.034-.31a3.44,3.44,0,1,0-6.881,0,3.245,3.245,0,0,0,.826,2.2L4.232,21.5a2.928,2.928,0,0,0-.791-.1,3.44,3.44,0,1,0,3.44,3.44,3.543,3.543,0,0,0-.86-2.3l3.2-5.745a3.745,3.745,0,0,0,.894.1,3.4,3.4,0,0,0,2.615-1.238L18.2,17.89a3.448,3.448,0,1,0,5.608-3.234L26.7,6.709a3.454,3.454,0,0,0,3.268-2.924A2.6,2.6,0,0,0,30,3.268,3.649,3.649,0,0,0,26.422,0ZM3.372,26.285a1.367,1.367,0,1,1,1.376-1.376,1.38,1.38,0,0,1-1.376,1.376Zm7.982-12.523a1.4,1.4,0,0,1-1.342,1.17,1.249,1.249,0,0,1-.963-.413,1.358,1.358,0,0,1-.413-.963,1.376,1.376,0,0,1,2.752,0c0,.034-.035.137-.035.206m10.114,5.057a1.38,1.38,0,0,1-1.376-1.376.671.671,0,0,1,.034-.275,1.4,1.4,0,0,1,1.342-1.1,1.272,1.272,0,0,1,.722.206,1.342,1.342,0,0,1,.654,1.17,1.379,1.379,0,0,1-1.376,1.376ZM27.8,3.647a1.4,1.4,0,0,1-1.342,1.17,1.241,1.241,0,0,1-.688-.206,1.893,1.893,0,0,1-.275-.206,1.358,1.358,0,0,1-.413-.963,1.376,1.376,0,0,1,2.753,0A.432.432,0,0,0,27.8,3.647Z" fill="#6513f0"/>
  </g>
</svg>
