<svg id="Group_4946" data-name="Group 4946" xmlns="http://www.w3.org/2000/svg" xmlns:xlink="http://www.w3.org/1999/xlink" width="25" height="25" viewBox="0 0 25 25">
  <defs>
    <clipPath id="clip-path">
      <rect id="Rectangle_4361" data-name="Rectangle 4361" width="25" height="25" fill="#6513f0"/>
    </clipPath>
  </defs>
  <g id="Group_4945" data-name="Group 4945" clip-path="url(#clip-path)">
    <path id="Path_4268" data-name="Path 4268" d="M25,9.022a9.087,9.087,0,0,0-1.3-4.676L21.432.55A1.138,1.138,0,0,0,20.455,0H4.545a1.137,1.137,0,0,0-.972.568L1.3,4.363h0A9.09,9.09,0,0,0,0,9.022v.471a4.183,4.183,0,0,0,2.273,3.733V21.59A3.408,3.408,0,0,0,5.682,25H19.318a3.409,3.409,0,0,0,3.409-3.409V13.226A4.182,4.182,0,0,0,25,9.493ZM10.227,18.181h4.545v4.545H10.227Zm9.091,4.545H17.045V17.045a1.136,1.136,0,0,0-1.136-1.136H9.091a1.136,1.136,0,0,0-1.136,1.136v5.682H5.682A1.137,1.137,0,0,1,4.546,21.59V13.585a3.978,3.978,0,0,0,2.1-.977l.171-.165a3.977,3.977,0,0,0,5.681,0,3.978,3.978,0,0,0,5.682,0l.171.165a3.976,3.976,0,0,0,2.1.977V21.59a1.137,1.137,0,0,1-1.137,1.137ZM22.727,9.493A1.813,1.813,0,0,1,21.2,11.363a1.7,1.7,0,0,1-1.886-1.7,1.136,1.136,0,1,0-2.273,0,1.7,1.7,0,1,1-3.409,0,1.136,1.136,0,1,0-2.273,0,1.7,1.7,0,0,1-3.409,0,1.136,1.136,0,1,0-2.272,0A1.708,1.708,0,0,1,3.79,11.351,1.812,1.812,0,0,1,2.273,9.493V9.022A6.815,6.815,0,0,1,3.245,5.51L5.188,2.272H19.812L21.755,5.51a6.818,6.818,0,0,1,.972,3.512Z" transform="translate(0 0.001)" fill="#6513f0"/>
  </g>
</svg>
